<svg width="1223" height="805" viewBox="0 0 1223 805" fill="none" xmlns="http://www.w3.org/2000/svg">
<g clip-path="url(#clip0_0_1)">
<path d="M24.7219 107.666C48.2285 92.6289 71.9469 77.5917 95.4536 62.5546C95.2418 61.9192 94.8183 61.0721 94.6065 60.4367C84.865 62.131 74.9117 63.8254 65.1702 65.3079C59.4524 66.1551 53.7346 66.7904 48.0168 66.5786C36.1575 66.155 31.9221 57.8952 38.0635 47.7293C40.1812 44.3406 42.7225 40.7402 45.6873 38.1987C60.2995 25.9148 75.1235 14.0546 89.7357 1.98249C90.7946 1.13533 92.0652 0.288181 93.3359 0.0763904C94.3947 -0.1354 96.3007 0.0763774 96.936 0.92354C97.7831 2.19428 98.4184 4.52399 97.5713 5.37115C95.2418 8.33622 92.7005 10.8777 89.9475 13.4192C78.5118 23.3734 66.6526 33.3275 55.217 43.4935C51.8286 46.4585 49.0756 50.4826 44.6284 55.7773C50.3462 55.7773 53.7346 56.2009 57.1229 55.7773C72.1587 53.2359 87.1945 50.2707 102.23 47.7293C105.619 47.0939 109.007 46.2467 112.395 46.8821C115.36 47.3057 119.172 48.7882 120.866 51.1179C123.407 54.5066 121.29 58.3188 118.325 61.0721C115.572 63.6136 112.819 66.1551 109.642 68.273C90.7946 80.5568 72.1587 92.6289 53.311 104.913C50.3462 106.819 47.3814 108.937 42.5107 112.114C55.217 112.325 64.7467 105.125 77.6648 109.36C74.2764 112.537 72.3705 114.867 70.041 116.138C51.4051 125.245 31.4986 131.387 11.1685 135.622C2.69764 137.528 -1.96134 132.022 0.791693 123.55C2.06232 119.738 3.7565 115.926 6.29775 112.749C13.0744 103.854 20.0629 95.1704 27.2631 86.487C28.5338 85.0044 31.4986 83.7337 32.981 84.1573C36.1575 85.428 35.734 88.6048 34.2516 91.1463C31.075 96.6529 27.4749 102.159 24.0866 107.454C24.0866 107.031 24.5101 107.454 24.7219 107.666Z" fill="white"/>
</g>
<g clip-path="url(#clip1_0_1)">
<path d="M3.17247 221.842C5.28745 224.179 7.82542 226.091 9.7289 228.64C26.0142 251.37 49.279 262.629 75.0817 268.789C83.9646 270.914 94.1165 270.701 103.211 268.789C129.225 263.691 152.913 252.857 173.428 235.863C179.35 230.977 184.426 224.816 188.656 217.806C186.33 218.656 183.792 219.505 181.465 220.568C174.697 223.542 167.929 226.728 160.95 229.277C157.989 230.339 154.393 230.339 151.009 230.127C149.74 230.127 147.837 228.215 147.625 226.94C147.414 225.666 148.683 223.329 149.74 223.117C167.718 217.593 183.369 206.972 199.654 197.837C205.364 194.651 208.96 195.501 211.498 201.236C217.631 215.469 220.381 230.552 219.958 246.059C219.958 246.484 219.112 247.121 217.843 248.396C205.364 243.722 209.171 230.127 203.038 219.293C201.557 221.842 200.5 223.966 199.231 225.666C172.582 258.593 137.262 276.012 96.2315 282.385C90.0981 283.447 83.3301 283.022 76.9852 281.96C53.7205 277.924 32.9937 268.152 15.8623 251.795C10.3634 246.484 6.34493 239.474 2.32647 232.888C0.634492 230.339 0.634494 226.728 0 223.754C1.05749 223.117 2.11498 222.479 3.17247 221.842Z" fill="white"/>
</g>
<g clip-path="url(#clip2_0_1)">
<path d="M0 345.65C6.14938 341.626 12.2988 342.897 17.812 344.803C25.4458 347.557 32.8674 351.157 39.6529 355.393C70.3998 375.727 88.8479 404.744 96.4816 440.539C98.39 449.647 99.0262 459.178 100.299 469.556C108.78 464.685 113.233 455.154 121.715 449.647C122.776 453.883 120.655 456.636 118.959 458.966C111.961 468.497 104.752 478.028 97.3299 487.348C93.7251 491.796 90.9684 492.219 87.1515 488.407C79.0937 480.57 74.2167 471.039 72.7323 460.025C72.7323 459.601 73.3684 458.966 74.2166 457.907C83.3347 460.237 81.2142 471.886 89.06 476.122C92.4527 461.508 89.9082 447.529 86.0913 433.973C82.0624 419.782 76.7612 406.227 68.2793 394.154C60.0095 382.293 49.6191 372.761 38.1686 363.866C26.93 354.758 14.2072 349.039 0 345.65Z" fill="white"/>
</g>
<g clip-path="url(#clip3_0_1)">
<path d="M20.1871 726C15.7485 723.891 13.0008 723.469 12.1553 721.992C8.98489 716.508 5.39173 711.024 3.70083 704.908C-1.37187 688.666 -0.737781 672.214 2.64402 655.762C8.35081 627.709 21.0325 602.82 36.8847 579.197C38.5756 576.665 40.0552 574.134 41.7461 571.392C41.7461 571.181 41.5347 570.76 41.1119 570.127C36.462 571.392 31.6007 572.658 26.9507 573.713C24.4144 574.134 21.4552 574.134 18.9189 573.291C17.4394 572.869 15.3258 570.549 15.3258 569.072C15.3258 567.174 16.8053 564.854 18.0735 563.166C19.1303 562.112 21.0326 561.901 22.7235 561.479C35.4052 558.315 48.087 554.729 60.9801 551.776C71.9709 549.245 75.564 552.831 74.9299 563.588C74.2959 574.767 74.0845 585.946 73.6618 596.914C73.4505 600.289 72.8164 603.875 72.3936 607.671C63.5164 603.664 63.5164 603.664 60.346 569.494C47.0301 584.259 38.1529 600.289 29.9098 616.741C21.6666 633.193 16.1712 650.489 13.2121 668.839C10.2531 687.823 13.8462 705.751 20.1871 726Z" fill="white"/>
</g>
<g clip-path="url(#clip4_0_1)">
<path d="M280 71C293.102 44.3623 363.05 8.91537 412.922 2.62301C466.809 -4.29859 497.873 1.57428 561.27 31.1484C560.425 26.9535 559.368 23.5976 558.945 20.4514C558.311 16.8857 557.677 13.1103 557.889 9.54461C557.889 8.49589 559.791 6.60818 561.059 6.39843C562.327 6.18869 564.44 7.6569 564.862 8.70563C568.666 18.7734 572.047 28.8412 575.64 39.1187C576.696 42.4746 575.428 44.9916 571.836 46.0403C558.1 49.3962 544.364 52.9619 530.417 56.1081C527.247 56.7373 523.443 55.8983 519.217 55.8983C522.598 46.8793 530.206 47.928 535.7 45.6208C541.406 43.1039 547.534 41.6357 554.93 39.1187C537.39 27.373 519.639 20.0319 500.832 15.4175C431.941 -1.78164 368.544 12.481 310.008 50.6547C302.4 55.6886 295.427 61.5615 288.03 66.8051C285.706 67.8538 283.592 68.9026 280 71Z" fill="white"/>
</g>
<g clip-path="url(#clip5_0_1)">
<path d="M294.444 157.026C296.348 165.22 298.041 173.205 300.156 182.24C294.655 181.61 291.481 178.248 290.212 174.466C286.403 163.119 282.806 151.562 280.267 139.796C278.786 133.072 283.653 129.5 290.212 131.601C301.214 134.963 312.005 138.955 323.008 142.737C323.643 142.947 324.489 143.158 324.701 143.578C325.759 145.049 326.393 146.73 327.24 148.411C325.759 149.041 324.278 150.512 323.008 150.302C318.565 149.671 314.333 148.621 310.101 147.78C307.774 147.36 305.658 146.73 302.272 147.78C304.6 150.302 306.927 153.033 309.255 155.555C359.613 205.564 435.15 216.07 497.781 182.24C505.821 177.828 513.227 172.575 521.055 167.742C523.806 166.061 526.557 164.59 529.307 162.909C529.942 163.329 530.365 163.96 531 164.38C530.365 166.271 530.154 168.793 528.673 170.053C524.018 174.466 519.363 178.879 514.073 182.661C461.599 220.483 388.601 221.954 332.106 185.813C321.315 178.879 311.794 170.053 301.849 162.069C299.733 160.388 298.041 158.497 296.136 156.605C295.713 156.395 295.078 156.605 294.444 157.026Z" fill="white"/>
</g>
<g clip-path="url(#clip6_0_1)">
<path d="M436.25 537.656C437.94 537.444 438.573 537.656 439.207 537.444C477.847 514.174 504.029 481.172 513.953 436.747C516.487 425.535 516.065 413.899 513.109 402.476C506.985 377.936 486.504 361.012 461.377 359.531C448.286 358.685 435.617 360.166 424.215 367.359C423.37 373.493 422.737 379.628 421.47 385.34C419.359 394.648 414.502 402.264 405.845 406.918C399.51 410.515 393.176 410.515 389.798 407.13C385.363 402.687 385.364 396.764 388.108 391.898C391.909 385.129 396.554 378.782 401.411 372.859C404.578 369.051 408.801 365.878 412.602 362.704C409.012 338.799 386.419 328.645 359.392 338.588C358.548 341.973 357.703 345.569 356.647 348.954C352.424 361.435 344.612 370.955 331.943 375.397C327.086 377.09 321.808 377.724 317.585 373.282C314.417 369.897 314.417 363.974 317.796 358.05C323.286 348.742 331.52 342.184 340.389 336.472C343.556 334.568 346.723 332.664 349.89 330.972C345.667 293.951 312.517 267.719 280 282.527C280.211 279.777 280 277.45 280.845 276.181C281.9 274.7 284.223 273.854 286.123 273.431C304.071 270.046 320.752 272.161 334.476 285.277C344.823 295.009 351.791 306.855 356.436 320.395C357.07 322.298 357.703 324.202 358.548 326.106C358.548 326.318 358.97 326.529 359.814 327.164C361.715 326.953 364.037 326.953 366.36 326.529C394.654 322.087 409.434 329.703 422.526 356.146C425.06 355.3 428.016 354.454 430.761 353.396C447.019 347.896 463.278 347.473 479.747 352.973C506.563 361.858 523.877 384.917 525.778 414.111C526.833 429.977 524.089 445.209 518.388 460.017C504.452 495.769 481.648 523.905 447.441 542.31C445.752 543.368 443.852 544.214 442.163 545.272C441.951 545.483 441.74 545.906 441.107 547.176C448.286 548.868 455.043 548.233 461.8 547.81C468.345 547.599 475.102 546.964 482.281 546.541C481.648 552.041 478.691 554.157 475.102 555.426C470.879 556.695 466.656 558.388 462.433 558.599C451.031 559.023 439.418 559.234 427.804 558.599C418.725 557.965 416.191 553.099 420.203 545.695C428.86 530.04 437.728 514.386 446.597 498.731C448.075 496.192 449.975 494.077 452.298 491.115C456.31 495.769 454.62 499.154 453.142 502.327C447.23 513.751 441.951 525.175 436.25 537.656ZM323.919 366.935C338.488 365.032 347.568 355.723 348.201 342.607C338.488 348.954 329.198 354.666 323.919 366.935ZM395.288 399.726C407.745 396.764 413.658 388.302 412.391 375.397C404.367 382.167 397.399 388.514 395.288 399.726Z" fill="white"/>
</g>
<g clip-path="url(#clip7_0_1)">
<path d="M282.423 785C281.79 781.196 280.525 777.391 280.314 773.587C278.837 737.657 282.423 702.361 294.234 668.333C298.03 657.554 303.092 646.986 308.997 637.264C315.113 626.696 323.76 618.031 337.258 619.088C350.756 620.144 357.084 630.712 362.356 641.702C368.683 655.018 371.425 669.39 373.323 683.762C373.745 686.932 374.167 690.314 376.276 693.907C379.651 686.932 383.025 680.169 386.61 672.771C391.25 676.153 389.985 679.957 389.352 682.705C385.556 698.134 381.549 713.563 377.12 728.78C375.222 735.543 369.949 736.389 365.942 731.105C356.873 718.635 351.6 704.474 349.28 689.046C349.28 688.623 349.913 687.989 350.546 686.932C359.193 687.566 356.873 697.711 363.2 701.938C361.724 679.957 359.193 659.456 348.858 640.646C347.593 638.321 345.906 636.207 344.007 634.305C338.735 629.021 333.251 628.176 327.979 633.46C322.073 639.377 316.59 646.141 312.582 653.327C303.092 670.446 297.608 689.046 294.444 708.067C291.07 729.414 289.172 750.972 286.641 772.53C286.219 776.335 286.008 780.35 285.586 784.366C284.743 784.577 283.688 784.789 282.423 785Z" fill="white"/>
</g>
<g clip-path="url(#clip8_0_1)">
<path d="M768.822 643C788.039 651.676 805.779 659.294 823.096 667.546C827.953 669.874 828.164 673.894 824.363 678.549C822.04 681.3 819.294 684.051 816.338 686.167C808.946 691.457 801.344 696.747 793.53 701.614C790.785 703.307 787.406 703.73 783.604 705C782.337 697.594 786.983 694.843 790.574 691.881C794.375 688.707 798.598 686.167 803.033 682.993C794.797 680.666 667.876 679.607 661.329 681.724C676.112 692.304 694.907 691.034 710.113 699.075C710.113 699.922 710.113 700.98 709.901 701.826C707.367 702.672 704.622 704.154 702.299 703.942C694.485 703.307 686.46 703.096 679.28 700.768C667.031 696.959 654.994 692.092 643.378 686.802C634.931 682.993 633.453 675.375 640.422 669.874C651.826 660.775 664.074 653.157 676.323 645.116C677.801 644.27 680.336 644.904 684.77 644.904C676.534 656.754 664.708 660.563 655.205 670.932C708.212 670.932 759.107 670.932 810.002 670.932C808.102 669.874 805.779 668.604 803.245 667.334C793.741 662.679 784.238 658.236 774.946 653.58C770.511 651.464 770.722 651.041 768.822 643Z" fill="white"/>
</g>
<g clip-path="url(#clip9_0_1)">
<path d="M636 84.5669C636.422 80.9698 636.211 77.3727 637.055 73.9872C638.321 69.1206 640.01 64.2539 642.542 59.8104C657.947 32.3033 680.317 11.9903 710.494 3.52656C741.305 -4.93718 770.427 1.8338 794.696 23.8395C806.936 34.8424 816.221 48.1728 823.396 62.9844C824.663 65.7351 825.929 68.2742 828.25 72.7177C830.993 66.5815 833.104 61.9264 835.214 57.0597C835.847 57.2713 836.48 57.2713 837.324 57.4829C837.535 58.9641 838.169 60.4452 837.958 61.9264C837.324 69.3322 836.48 76.7379 835.636 84.1437C835.003 89.0104 834.581 94.0886 829.305 96.2045C823.818 98.5321 819.176 95.3582 815.588 91.7611C810.734 86.6829 806.303 80.9698 802.082 75.2568C801.238 73.9872 802.082 71.6597 802.082 69.7553C803.981 69.7553 806.303 69.1206 807.569 69.9669C811.368 72.7177 814.533 76.1032 818.121 79.4887C818.332 78.8539 818.754 78.4307 818.543 78.2191C802.082 31.6685 768.317 3.94975 720.202 8.81641C717.88 9.028 715.559 9.45118 713.238 10.2976C680.95 20.6656 657.103 40.767 642.542 71.6597C640.643 75.68 639.799 80.335 638.532 84.7785C637.688 84.7785 636.844 84.5669 636 84.5669Z" fill="white"/>
</g>
<g clip-path="url(#clip10_0_1)">
<path d="M654.341 231.192C654.341 229.081 654.341 226.758 654.341 224.647C654.553 206.065 654.975 187.272 655.187 168.691C655.187 166.579 655.187 164.679 655.398 162.567C655.61 159.822 656.244 156.444 659.839 157.077C661.319 157.289 663.011 160.456 663.222 162.356C664.068 177.982 664.702 193.396 665.337 209.021C665.548 212.611 665.337 216.2 667.24 220.001C669.777 215.778 671.892 211.344 674.641 207.332C675.91 205.432 679.081 203.32 680.985 203.742C684.791 204.587 684.368 208.81 683.099 211.344C677.601 224.013 672.103 236.894 665.548 249.14C661.319 256.953 654.975 256.953 650.746 249.14C645.037 238.794 640.808 227.603 636.156 216.834C635.521 215.567 637.002 213.456 637.425 211.766C639.116 212.4 641.654 212.4 642.5 213.667C644.614 216.2 645.883 219.579 647.574 222.535C649.266 225.702 650.958 228.87 652.649 231.826C653.072 231.404 653.707 231.192 654.341 231.192Z" fill="white"/>
</g>
<g clip-path="url(#clip11_0_1)">
<path d="M733.434 427.265C736.403 424.095 740.434 420.715 743.191 416.7C748.918 408.249 754.221 399.586 759.523 390.923C769.492 374.443 779.461 357.751 790.279 339.791C776.28 344.44 765.886 356.272 749.342 353.525C750.827 350.99 751.251 348.877 752.312 348.454C768.856 341.693 783.279 331.551 796.854 320.353C808.096 311.267 813.823 313.803 815.308 327.537C816.792 341.904 819.762 356.272 821.883 370.639C822.307 372.964 821.459 375.499 821.247 378.457C812.126 374.231 812.126 374.231 804.49 342.749C802.793 345.496 801.308 347.609 800.036 349.722C787.521 371.485 775.219 393.247 762.281 414.799C758.038 421.771 752.948 428.321 747.221 434.026C737.04 444.168 725.798 443.745 716.253 432.97C711.375 427.476 707.769 420.715 704.587 413.954C700.981 406.347 698.648 398.107 695.467 390.289C693.133 384.796 690.164 379.514 687.407 373.809C680.831 376.344 678.286 381.204 675.316 385.641C662.802 404.446 653.469 424.518 646.47 446.069C645.621 448.605 645.197 451.352 643.712 453.676C642.864 454.944 640.531 456 638.834 456C637.985 456 636.289 453.676 636.077 452.408C635.864 448.816 636.077 444.802 636.925 441.421C642.864 417.123 652.833 394.515 667.044 374.02C669.802 369.794 673.407 365.991 677.225 362.822C684.225 357.117 691.225 357.328 696.951 364.301C701.618 370.006 705.012 376.767 707.981 383.528C712.435 393.459 715.617 403.812 720.071 413.742C722.616 419.025 725.586 424.518 733.434 427.265Z" fill="white"/>
</g>
<g clip-path="url(#clip12_0_1)">
<path d="M680.084 556.947C688.111 561.639 694.237 565.265 700.152 568.677C702.264 569.956 704.377 571.023 706.278 572.516C709.024 574.435 712.826 576.568 710.714 580.62C708.602 584.459 704.588 582.752 701.631 581.686C698.462 580.833 695.294 579.127 692.336 577.634C678.606 571.023 664.875 564.198 651.356 557.374C647.765 555.454 643.962 553.748 640.794 551.189C634.034 546.071 634.457 540.952 641.85 537.113C651.778 531.995 661.918 527.303 672.057 522.611C676.282 520.479 680.718 518.346 685.154 516.853C687.689 516 690.646 516.213 693.392 516C694.237 521.971 690.857 523.251 687.9 524.744C680.507 528.796 672.902 532.635 665.509 536.687C662.974 538.18 660.228 539.673 657.693 543.085C661.495 543.511 665.086 544.151 668.889 544.364C697.406 545.857 725.712 547.35 754.229 548.843C795.632 550.976 836.824 553.108 878.227 555.454C881.607 555.668 884.986 556.947 889 558.014C885.198 563.772 880.762 562.492 877.171 562.279C856.892 561.852 836.401 560.999 816.122 560.359C772.396 558.867 728.669 557.374 684.943 555.881C683.887 556.094 683.253 556.307 680.084 556.947Z" fill="white"/>
</g>
<g clip-path="url(#clip13_0_1)">
<path d="M949.689 159.489C956.44 160.759 963.192 162.03 971.209 163.512C970.154 160.759 969.521 158.853 968.466 156.947C947.79 116.501 954.331 73.3014 985.977 40.4783C1006.44 19.5139 1031.76 8.71403 1060.03 2.78469C1091.68 -3.77994 1121.85 1.72588 1150.96 14.4316C1165.94 20.9962 1177.54 31.7961 1187.46 44.5018C1189.99 47.89 1192.31 51.2782 1194 55.937C1191.89 54.6664 1189.36 53.6076 1188.09 51.7017C1155.39 6.17288 1077.96 -4.62699 1022.05 25.2315C1000.11 36.8784 983.656 54.0311 973.74 76.9014C962.137 103.795 966.989 139.159 985.555 161.183C989.353 151.653 985.977 139.371 996.737 131.748C996.315 145.301 996.104 157.583 995.682 169.653C995.471 173.677 993.361 176.853 989.564 175.794C976.483 172.406 963.614 168.594 950.955 164.571C950.111 164.359 949.689 162.453 949.056 161.394C948.845 160.971 949.267 160.124 949.689 159.489Z" fill="white"/>
</g>
<g clip-path="url(#clip14_0_1)">
<path d="M970.489 265.43C985.933 267.35 1000.32 269.056 1014.71 270.975C1015.76 271.189 1016.61 272.468 1018.94 274.387C1012.17 275.241 1006.88 276.307 1001.59 276.52C987.626 276.947 973.874 276.947 959.911 276.947C958.218 276.947 956.526 277.16 954.833 276.733C949.332 275.667 947.428 272.042 950.39 267.137C951.871 264.791 953.564 262.658 955.468 260.739C962.661 253.488 970.066 246.45 977.471 239.412C978.74 238.133 980.644 237.493 983.183 236C983.606 246.876 972.816 249.862 970.489 258.393C972.393 257.966 974.086 257.753 975.567 257.326C1032.69 241.545 1089.6 243.251 1146.3 258.606C1152.22 260.099 1157.94 262.445 1163.65 264.577C1166.61 265.644 1169.15 267.99 1167.46 271.615C1165.98 275.241 1163.01 275.241 1159.63 273.748C1121.76 256.687 1081.56 254.767 1040.94 255.407C1019.78 255.62 999.05 257.966 978.529 262.871C975.99 263.511 973.451 264.364 970.489 265.43Z" fill="white"/>
</g>
<g clip-path="url(#clip15_0_1)">
<path d="M1111.79 363.684C1108.83 368.098 1106.09 371.881 1103.56 375.664C1094.48 388.483 1082.66 397.31 1067.24 401.513C1056.05 404.455 1045.5 403.195 1036.42 396.259C1027.34 389.324 1018.69 381.548 1010.03 374.192C1005.6 370.409 1001.59 366.416 997.154 362.844C989.132 356.749 983.432 356.749 974.776 362.003C964.431 368.308 957.887 378.606 955.353 392.897C948.809 391.846 948.387 386.802 949.442 382.389C950.709 376.924 952.609 371.25 955.565 366.627C958.942 361.373 963.376 356.329 968.231 352.546C980.476 342.878 992.087 342.668 1004.54 351.915C1011.93 357.38 1018.27 363.895 1025.23 369.779C1031.57 375.243 1038.11 380.707 1044.87 385.961C1049.93 389.954 1055.84 390.795 1062.18 389.744C1071.89 388.063 1079.91 383.65 1086.88 376.504C1088.36 375.033 1089.62 373.562 1090.89 371.881C1096.38 364.735 1101.87 357.59 1107.78 349.814C1094.27 353.176 1081.81 356.329 1069.14 359.481C1068.93 359.481 1068.3 358.43 1067.67 357.59C1068.51 356.749 1069.14 355.278 1069.99 354.858C1081.81 349.183 1093.63 343.089 1105.88 338.465C1115.38 334.892 1121.08 337.835 1123.61 347.502C1125.93 355.908 1126.57 364.735 1126.99 373.352C1127.2 375.453 1124.24 378.816 1122.13 379.657C1120.87 380.287 1117.07 377.765 1116.01 375.874C1113.9 372.511 1113.27 368.518 1111.79 363.684Z" fill="white"/>
</g>
<g clip-path="url(#clip16_0_1)">
<path d="M1196.03 589.774C1188.87 585.246 1183.03 581.963 1177.47 578.304C1174.27 576.092 1170.69 573.591 1174.35 567.578C1186.42 573.486 1198.6 578.166 1209.43 585.858C1214.04 589.033 1214.29 592.442 1211.59 597.52C1210.63 599.402 1209.28 600.995 1208.13 602.495C1201.52 610.651 1194.9 618.807 1188.01 626.866C1185.8 629.584 1183.12 632.297 1179.45 629.607C1176.16 627.204 1176.48 623.518 1178.21 620.321C1180.24 616.748 1182.73 613.654 1185.13 610.37C1186.85 608.119 1188.77 605.776 1189.56 602.568C1188.42 603.123 1187.28 603.677 1186.13 604.232C1173.38 610.426 1167.32 609.6 1156.61 600.206C1148.15 592.541 1141.51 583.761 1137.44 573.024C1136.42 570.458 1135.4 567.892 1134.48 565.516C1129.93 555.246 1124.26 553.762 1115.85 561.141C1111.55 564.877 1108 569.662 1104.17 573.875C1092.87 586.898 1082.91 588.204 1068.6 578.201C1057.87 570.7 1049.05 561.327 1042.52 549.9C1040.56 546.377 1038.51 542.664 1036.08 539.608C1031.96 534.547 1028.36 534.412 1024.52 539.572C1020.3 544.916 1017.12 550.935 1013.65 556.856C1011.15 560.896 1009.31 565.322 1006.52 569.264C1000.76 577.241 992.854 581.787 982.733 579.874C975.166 578.369 967.511 576.2 960.144 573.657C955.327 571.993 951.476 568.449 951.449 561.163C953.907 561.854 955.89 562.539 958.064 563.131C965.812 565.49 973.56 567.849 981.502 569.642C989.161 571.337 994.691 567.71 998.353 561.224C1001.44 555.488 1003.96 549.556 1007.14 544.01C1010.12 539.029 1013.01 533.859 1016.94 529.835C1025.26 520.847 1036.54 521.259 1044.31 530.903C1047.87 535.296 1050.85 540.439 1053.55 545.484C1059.14 555.482 1067.03 563.424 1076.26 569.774C1083.98 574.97 1087.68 574.35 1093.81 567.608C1098.88 562.083 1103.48 556.081 1109.21 551.415C1112.84 548.24 1117.98 546.217 1122.92 545.232C1131.46 543.437 1138.25 547.204 1142.25 554.913C1144.3 559.099 1146.24 563.568 1147.53 568.124C1150.75 578.568 1157.68 586.5 1165.39 593.589C1169.15 596.943 1173.11 598.313 1178.25 595.817C1183.39 593.32 1188.9 592.059 1196.03 589.774Z" fill="white"/>
</g>
<g clip-path="url(#clip17_0_1)">
<path d="M809.928 786.129C751.811 809.939 694.751 810.774 636 791.142C640.227 786.756 643.819 788.427 646.567 789.262C667.7 794.901 689.468 795.528 711.024 796.363C742.09 797.616 771.465 790.515 800.207 779.028C801.475 778.61 802.532 777.775 805.068 776.104C790.486 773.18 775.903 778.193 763.223 772.345C763.435 771.509 763.435 770.465 763.646 769.63C773.156 769.003 782.877 768.377 792.388 767.541C801.898 766.706 811.196 765.662 820.706 765.035C827.68 764.617 830.639 767.959 828.103 774.225C824.933 782.37 820.495 789.889 816.48 797.616C816.057 798.452 815.423 799.496 814.578 799.914C812.253 800.749 809.928 800.958 807.392 801.584C806.97 799.496 805.913 797.199 806.124 795.319C806.547 792.813 808.026 790.724 809.928 786.129Z" fill="white"/>
</g>
<defs>
<clipPath id="clip0_0_1">
<rect width="122" height="136" fill="white"/>
</clipPath>
<clipPath id="clip1_0_1">
<rect width="220" height="87" fill="white" transform="translate(0 196)"/>
</clipPath>
<clipPath id="clip2_0_1">
<rect width="122" height="148" fill="white" transform="translate(0 343)"/>
</clipPath>
<clipPath id="clip3_0_1">
<rect width="75" height="175" fill="white" transform="translate(0 551)"/>
</clipPath>
<clipPath id="clip4_0_1">
<rect width="296" height="71" fill="white" transform="translate(280)"/>
</clipPath>
<clipPath id="clip5_0_1">
<rect width="251" height="81" fill="white" transform="translate(280 131)"/>
</clipPath>
<clipPath id="clip6_0_1">
<rect width="246" height="287" fill="white" transform="translate(280 272)"/>
</clipPath>
<clipPath id="clip7_0_1">
<rect width="110" height="166" fill="white" transform="translate(280 619)"/>
</clipPath>
<clipPath id="clip8_0_1">
<rect width="191" height="62" fill="white" transform="translate(636 643)"/>
</clipPath>
<clipPath id="clip9_0_1">
<rect width="202" height="97" fill="white" transform="translate(636)"/>
</clipPath>
<clipPath id="clip10_0_1">
<rect width="48" height="98" fill="white" transform="translate(636 157)"/>
</clipPath>
<clipPath id="clip11_0_1">
<rect width="186" height="141" fill="white" transform="translate(636 315)"/>
</clipPath>
<clipPath id="clip12_0_1">
<rect width="253" height="67" fill="white" transform="translate(636 516)"/>
</clipPath>
<clipPath id="clip13_0_1">
<rect width="245" height="176" fill="white" transform="translate(949)"/>
</clipPath>
<clipPath id="clip14_0_1">
<rect width="219" height="41" fill="white" transform="translate(949 236)"/>
</clipPath>
<clipPath id="clip15_0_1">
<rect width="178" height="66" fill="white" transform="translate(949 337)"/>
</clipPath>
<clipPath id="clip16_0_1">
<rect width="274" height="246" fill="white" transform="translate(949 463)"/>
</clipPath>
<clipPath id="clip17_0_1">
<rect width="193" height="40" fill="white" transform="translate(636 765)"/>
</clipPath>
</defs>
</svg>
